<svg width="68" height="74" viewBox="0 0 68 74" fill="none" xmlns="http://www.w3.org/2000/svg">
<path d="M30.1 18.275V0H3.225C1.43781 0 0 1.43781 0 3.225V65.575C0 67.3622 1.43781 68.8 3.225 68.8H48.375C50.1622 68.8 51.6 67.3622 51.6 65.575V21.5H33.325C31.5512 21.5 30.1 20.0488 30.1 18.275ZM38.7 49.9875C38.7 50.8744 37.9744 51.6 37.0875 51.6H14.5125C13.6256 51.6 12.9 50.8744 12.9 49.9875V48.9125C12.9 48.0256 13.6256 47.3 14.5125 47.3H37.0875C37.9744 47.3 38.7 48.0256 38.7 48.9125V49.9875ZM38.7 41.3875C38.7 42.2744 37.9744 43 37.0875 43H14.5125C13.6256 43 12.9 42.2744 12.9 41.3875V40.3125C12.9 39.4256 13.6256 38.7 14.5125 38.7H37.0875C37.9744 38.7 38.7 39.4256 38.7 40.3125V41.3875ZM38.7 31.7125V32.7875C38.7 33.6744 37.9744 34.4 37.0875 34.4H14.5125C13.6256 34.4 12.9 33.6744 12.9 32.7875V31.7125C12.9 30.8256 13.6256 30.1 14.5125 30.1H37.0875C37.9744 30.1 38.7 30.8256 38.7 31.7125ZM51.6 16.3803V17.2H34.4V0H35.2197C36.0797 0 36.8994 0.335938 37.5041 0.940625L50.6594 14.1094C51.2641 14.7141 51.6 15.5338 51.6 16.3803Z" fill="#1C9B13"/>
<path d="M30.2185 71.2144L12.7855 53.7814C11.7382 52.734 11.7382 51.0359 12.7855 49.9885L16.5783 46.1955C17.6257 45.1481 19.3239 45.1481 20.3713 46.1955L32.115 57.9391L57.2687 32.7855C58.316 31.7382 60.0143 31.7382 61.0616 32.7855L64.8545 36.5784C65.9018 37.6258 65.9018 39.3239 64.8545 40.3714L34.0115 71.2145C32.964 72.2618 31.2659 72.2618 30.2185 71.2144Z" fill="#F5F5F5" stroke="#2E2D2D" stroke-width="3"/>
</svg>
