<svg width="310" height="366" viewBox="0 0 310 366" fill="none" xmlns="http://www.w3.org/2000/svg">
<path d="M242.182 158.945C239.327 158.945 236.868 160.956 236.301 163.754L227.258 208.395C226.505 212.111 229.346 215.586 233.138 215.586H282.789C286.103 215.586 288.789 218.272 288.789 221.586V259.879C288.789 263.193 286.103 265.879 282.789 265.879H221.248C218.366 265.879 215.891 267.929 215.353 270.761L198.406 360.118C197.869 362.95 195.394 365 192.511 365H151.032C147.264 365 144.429 361.568 145.14 357.868L161.442 273.011C162.153 269.311 159.318 265.879 155.55 265.879H120.43C117.542 265.879 115.064 267.936 114.533 270.775L97.811 360.104C97.2797 362.943 94.8014 365 91.9135 365H51.5967C47.8523 365 45.0226 361.608 45.694 357.924L61.181 272.955C61.8524 269.271 59.0227 265.879 55.2783 265.879H10.3652C7.05153 265.879 4.36523 263.193 4.36523 259.879V221.586C4.36523 218.272 7.05153 215.586 10.3652 215.586H67.0858C69.9403 215.586 72.3996 213.575 72.9664 210.777L82.0099 166.137C82.7629 162.42 79.9218 158.945 76.1294 158.945H27.9434C24.6297 158.945 21.9434 156.259 21.9434 152.945V113.92C21.9434 110.606 24.6297 107.92 27.9434 107.92H87.5287C90.4123 107.92 92.8881 105.869 93.4241 103.035L110.375 13.4393C110.911 10.606 113.387 8.55469 116.27 8.55469H157.524C161.285 8.55469 164.119 11.9748 163.419 15.67L147.313 100.805C146.614 104.5 149.448 107.92 153.208 107.92H189.347C192.226 107.92 194.698 105.876 195.24 103.049L212.416 13.4254C212.958 10.5986 215.431 8.55469 218.309 8.55469H258.581C262.347 8.55469 265.182 11.9847 264.474 15.684L248.163 100.791C247.454 104.49 250.289 107.92 254.056 107.92H299.391C302.704 107.92 305.391 110.606 305.391 113.92V152.945C305.391 156.259 302.704 158.945 299.391 158.945H242.182ZM126.428 208.395C125.675 212.111 128.516 215.586 132.308 215.586H167.916C170.77 215.586 173.23 213.575 173.796 210.777L182.84 166.137C183.593 162.42 180.752 158.945 176.959 158.945H141.352C138.497 158.945 136.038 160.956 135.471 163.754L126.428 208.395Z" fill="url(#paint0_linear_9_5)"/>
<defs>
<linearGradient id="paint0_linear_9_5" x1="77.5" y1="81.2164" x2="228.554" y2="208.299" gradientUnits="userSpaceOnUse">
<stop stop-color="#A43DDC"/>
<stop offset="1" stop-color="#FC297E"/>
</linearGradient>
</defs>
</svg>
